<mxfile host="app.diagrams.net" modified="2024-02-29T01:24:59.454Z" agent="Mozilla/5.0 (Windows NT 10.0; Win64; x64) AppleWebKit/537.36 (KHTML, like Gecko) Chrome/121.0.0.0 Safari/537.36" version="22.1.16" etag="4V9ZqJFglxu6wzZQQD5P" type="github">
  <diagram name="Page-1" id="JdhjhbK9li5IYWQ9SXEt">
    <mxGraphModel>
      <root>
        <mxCell id="0" />
        <mxCell id="1" parent="0" />
      </root>
    </mxGraphModel>
  </diagram>
</mxfile>
